# xmcd
#
# Track frame offsets: 
#        150
#        17824
#        35310
#        56171
#        74612
#        95430
#        118491
#        134439
#        150480
#        179060
#        194874
#        213256
#        231632
#        249374
#        265828
#
# Disc length: 3799 seconds
#
# Revision: 0
# Processed by: cddbd v1.5.2PL0 Copyright (c) Steve Scherf et al.
# Submitted via: ExactAudioCopy v0.99pb3
#
DISCID=eb0ed50f
DTITLE=Dr. Fong and Friends - Beethoven Of Da Blues
DYEAR=2007
DGENRE=Blues
TTITLE0=New York Blues
TTITLE1=Devil and The Deep Blue Sea
TTITLE2=When Your World Comes Tumblin' Down
TTITLE3=Down At The Deja Vu
TTITLE4=Worried Mind Blues
TTITLE5=Sloe Gin Callin' My Name
TTITLE6=Big Train Rollin'
TTITLE7=Bad Cat Walkin'
TTITLE8=Paris Moon
TTITLE9=Love Is Like A Burning Flame
TTITLE10=Champagne and Roses
TTITLE11=Cruel Wind
TTITLE12=Havana Calls My Name
TTITLE13=Table For One
TTITLE14=Carolina Blues
EXTD=
EXTT0=
EXTT1=
EXTT2=
EXTT3=
EXTT4=
EXTT5=
EXTT6=
EXTT7=
EXTT8=
EXTT9=
EXTT10=
EXTT11=
EXTT12=
EXTT13=
EXTT14=
PLAYORDER=
